<svg id="instagram" xmlns="http://www.w3.org/2000/svg" xmlns:xlink="http://www.w3.org/1999/xlink" width="33.156" height="32.12" viewBox="0 0 33.156 32.12">
  <metadata><?xpacket begin="﻿" id="W5M0MpCehiHzreSzNTczkc9d"?>
<x:xmpmeta xmlns:x="adobe:ns:meta/" x:xmptk="Adobe XMP Core 5.6-c142 79.160924, 2017/07/13-01:06:39        ">
   <rdf:RDF xmlns:rdf="http://www.w3.org/1999/02/22-rdf-syntax-ns#">
      <rdf:Description rdf:about=""/>
   </rdf:RDF>
</x:xmpmeta>
                                                                                                    
                                                                                                    
                                                                                                    
                                                                                                    
                                                                                                    
                                                                                                    
                                                                                                    
                                                                                                    
                                                                                                    
                                                                                                    
                                                                                                    
                                                                                                    
                                                                                                    
                                                                                                    
                                                                                                    
                                                                                                    
                                                                                                    
                                                                                                    
                                                                                                    
                                                                                                    
                           
<?xpacket end="w"?></metadata>
<defs>
    <style>
      .cls-1, .cls-2 {
        fill: #fff;
        fill-rule: evenodd;
      }

      .cls-1 {
        fill-opacity: 0;
        stroke: #ebebeb;
        stroke-linejoin: round;
        stroke-opacity: 0.48;
        stroke-width: 2px;
        filter: url(#filter);
      }

      .cls-2 {
        filter: url(#filter-2);
      }
    </style>
    <filter id="filter" x="185" y="4684" width="31.156" height="30.12" filterUnits="userSpaceOnUse">
      <feFlood result="flood" flood-color="#13150b" flood-opacity="0.4"/>
      <feComposite result="composite" operator="in" in2="SourceGraphic"/>
      <feBlend result="blend" in2="SourceGraphic"/>
    </filter>
    <filter id="filter-2" x="191.375" y="4689.62" width="18.406" height="18.19" filterUnits="userSpaceOnUse">
      <feFlood result="flood" flood-color="#fff"/>
      <feComposite result="composite" operator="in" in2="SourceGraphic"/>
      <feBlend result="blend" in2="SourceGraphic"/>
    </filter>
  </defs>
  <g transform="translate(-184 -4683)" style="fill: #fff; filter: url(#filter)">
    <path id="Прямоугольник_скругл._углы_3_copy" data-name="Прямоугольник, скругл. углы 3 copy" class="cls-1" d="M200.324,4684.01h0.5a15.1,15.1,0,0,1,15.332,14.85v0.41a15.1,15.1,0,0,1-15.332,14.85h-0.5a15.1,15.1,0,0,1-15.332-14.85v-0.41A15.1,15.1,0,0,1,200.324,4684.01Z" style="stroke: inherit; filter: none; fill: inherit"/>
  </g>
  <use transform="translate(-184 -4683)" xlink:href="#Прямоугольник_скругл._углы_3_copy" style="stroke: #ebebeb; filter: none; fill: none"/>
  <path id="Forma_1" data-name="Forma 1" class="cls-2" d="M204.423,4689.61H196.71a5.323,5.323,0,0,0-5.347,5.29v7.62a5.323,5.323,0,0,0,5.347,5.29h7.713a5.322,5.322,0,0,0,5.346-5.29v-7.62A5.322,5.322,0,0,0,204.423,4689.61Zm3.908,12.91a3.89,3.89,0,0,1-3.908,3.87H196.71a3.89,3.89,0,0,1-3.909-3.87v-7.62a3.9,3.9,0,0,1,3.909-3.87h7.713a3.9,3.9,0,0,1,3.908,3.87v7.62Zm-7.765-8.71a4.905,4.905,0,1,0,4.961,4.9A4.938,4.938,0,0,0,200.566,4693.81Zm0,8.38a3.48,3.48,0,1,1,3.523-3.48A3.505,3.505,0,0,1,200.566,4702.19Zm5.033-9.17a0.715,0.715,0,1,1-.719.71A0.716,0.716,0,0,1,205.6,4693.02Z" transform="translate(-184 -4683)"/>
</svg>
