<svg id="viber" xmlns="http://www.w3.org/2000/svg" xmlns:xlink="http://www.w3.org/1999/xlink" width="33.156" height="32.09" viewBox="0 0 33.156 32.09">
  <metadata><?xpacket begin="﻿" id="W5M0MpCehiHzreSzNTczkc9d"?>
<x:xmpmeta xmlns:x="adobe:ns:meta/" x:xmptk="Adobe XMP Core 5.6-c142 79.160924, 2017/07/13-01:06:39        ">
   <rdf:RDF xmlns:rdf="http://www.w3.org/1999/02/22-rdf-syntax-ns#">
      <rdf:Description rdf:about=""/>
   </rdf:RDF>
</x:xmpmeta>
                                                                                                    
                                                                                                    
                                                                                                    
                                                                                                    
                                                                                                    
                                                                                                    
                                                                                                    
                                                                                                    
                                                                                                    
                                                                                                    
                                                                                                    
                                                                                                    
                                                                                                    
                                                                                                    
                                                                                                    
                                                                                                    
                                                                                                    
                                                                                                    
                                                                                                    
                                                                                                    
                           
<?xpacket end="w"?></metadata>
<defs>
    <style>
      .cls-1 {
        fill: #6a2da1;
        fill-opacity: 0;
        stroke: #ebebeb;
        stroke-linejoin: round;
        stroke-opacity: 0.48;
        stroke-width: 2px;
        filter: url(#filter);
      }

      .cls-1, .cls-2 {
        fill-rule: evenodd;
      }

      .cls-2 {
        fill: #fff;
      }
    </style>
    <filter id="filter" x="293.594" y="4683.97" width="31.156" height="30.09" filterUnits="userSpaceOnUse">
      <feFlood result="flood" flood-color="#13150b" flood-opacity="0.4"/>
      <feComposite result="composite" operator="in" in2="SourceGraphic"/>
      <feBlend result="blend" in2="SourceGraphic"/>
    </filter>
  </defs>
  <g transform="translate(-292.594 -4682.97)" style="fill: #6a2da1; filter: url(#filter)">
    <path id="Прямоугольник_скругл._углы_3_copy_4" data-name="Прямоугольник, скругл. углы 3 copy 4" class="cls-1" d="M308.929,4683.96h0.5a15.1,15.1,0,0,1,15.333,14.85v0.42a15.09,15.09,0,0,1-15.333,14.84h-0.5a15.09,15.09,0,0,1-15.333-14.84v-0.42A15.1,15.1,0,0,1,308.929,4683.96Z" style="stroke: inherit; filter: none; fill: inherit"/>
  </g>
  <use transform="translate(-292.594 -4682.97)" xlink:href="#Прямоугольник_скругл._углы_3_copy_4" style="stroke: #ebebeb; filter: none; fill: none"/>
  <path class="cls-2" d="M309.3,4692.14a6.472,6.472,0,0,1,6.081,6.17,0.787,0.787,0,0,0,.777.79h0.01a0.782,0.782,0,0,0,.787-0.77,7.987,7.987,0,0,0-7.6-7.74,0.768,0.768,0,0,0-.813.75A0.776,0.776,0,0,0,309.3,4692.14Zm-0.185,2.59a3.979,3.979,0,0,1,3.6,3.7,0.791,0.791,0,0,0,.78.79H313.5a0.786,0.786,0,0,0,.786-0.77,5.559,5.559,0,0,0-4.994-5.26A0.776,0.776,0,1,0,309.11,4694.73Zm6.721,7.26-0.226-.17c-0.413-.32-0.845-0.62-1.263-0.9l-0.279-.19a2.88,2.88,0,0,0-2.164-.59,2.52,2.52,0,0,0-1.619,1.16c-0.106.16-.206,0.3-0.662,0.1a7.137,7.137,0,0,1-2.051-1.32l-1.375-1.94c-0.233-.54-0.106-0.7.21-0.91a2.118,2.118,0,0,0,1.164-1.9c-0.062-1.11-2.274-4.04-3.332-4.42a2.246,2.246,0,0,0-1.492,0,3.794,3.794,0,0,0-2.4,1.95,3.515,3.515,0,0,0,.047,2.89,20.9,20.9,0,0,0,11.693,11.41,4.132,4.132,0,0,0,.774.22l0.133,0.03a0.838,0.838,0,0,0,.223.03,4.466,4.466,0,0,0,3.73-2.74A2.209,2.209,0,0,0,315.831,4701.99Zm-0.366,2.18a2.949,2.949,0,0,1-2.184,1.71c-0.027-.01-0.055-0.01-0.086-0.02a2.3,2.3,0,0,1-.5-0.14,19.36,19.36,0,0,1-10.853-10.57,2.015,2.015,0,0,1-.068-1.64,2.311,2.311,0,0,1,1.46-1.13,0.79,0.79,0,0,1,.252-0.04,0.466,0.466,0,0,1,.2.04,8.6,8.6,0,0,1,2.305,3.03c0.008,0.13-.021.24-0.466,0.53a2.119,2.119,0,0,0-.742,2.91,0.856,0.856,0,0,0,.073.12l1.464,2.07a0.642,0.642,0,0,0,.1.11,8.77,8.77,0,0,0,2.559,1.68,1.97,1.97,0,0,0,2.605-.66,1.013,1.013,0,0,1,.608-0.5,1.5,1.5,0,0,1,.978.34l0.282,0.2c0.4,0.27.8,0.54,1.177,0.83,0.084,0.07.172,0.13,0.258,0.2C315.557,4703.73,315.589,4703.83,315.465,4704.17Z" transform="translate(-292.594 -4682.97)"/>
</svg>
